<?xml version="1.0" encoding="UTF-8" standalone="no"?>
<!-- Generator: Adobe Illustrator 15.0.0, SVG Export Plug-In . SVG Version: 6.00 Build 0)  -->

<svg
   xmlns:dc="http://purl.org/dc/elements/1.1/"
   xmlns:cc="http://creativecommons.org/ns#"
   xmlns:rdf="http://www.w3.org/1999/02/22-rdf-syntax-ns#"
   xmlns:svg="http://www.w3.org/2000/svg"
   xmlns="http://www.w3.org/2000/svg"
   xmlns:sodipodi="http://sodipodi.sourceforge.net/DTD/sodipodi-0.dtd"
   xmlns:inkscape="http://www.inkscape.org/namespaces/inkscape"
   version="1.1"
   x="0px"
   y="0px"
   width="17px"
   height="17px"
   viewBox="0 0 17 17"
   enable-background="new 0 0 17 17"
   xml:space="preserve"
   id="svg6"
   sodipodi:docname="icon-search-red.svg"
   inkscape:version="0.92.4 (5da689c313, 2019-01-14)"><metadata
   id="metadata12"><rdf:RDF><cc:Work
       rdf:about=""><dc:format>image/svg+xml</dc:format><dc:type
         rdf:resource="http://purl.org/dc/dcmitype/StillImage" /></cc:Work></rdf:RDF></metadata><defs
   id="defs10" /><sodipodi:namedview
   pagecolor="#ffffff"
   bordercolor="#666666"
   borderopacity="1"
   objecttolerance="10"
   gridtolerance="10"
   guidetolerance="10"
   inkscape:pageopacity="0"
   inkscape:pageshadow="2"
   inkscape:window-width="2560"
   inkscape:window-height="1057"
   id="namedview8"
   showgrid="false"
   inkscape:zoom="13.882353"
   inkscape:cx="-3.2055084"
   inkscape:cy="8.5"
   inkscape:window-x="-8"
   inkscape:window-y="-8"
   inkscape:window-maximized="1"
   inkscape:current-layer="svg6" />
<g
   id="Layer_1">
</g>
<g
   id="Layer_2"
   style="fill:#ee3643;fill-opacity:1">
	<path
   fill="#231F20"
   d="M17,15.586l-3.542-3.542C14.421,10.782,15,9.21,15,7.5C15,3.358,11.643,0,7.5,0C3.358,0,0,3.358,0,7.5   C0,11.643,3.358,15,7.5,15c1.71,0,3.282-0.579,4.544-1.542L15.586,17L17,15.586z M2,7.5C2,4.467,4.467,2,7.5,2   C10.532,2,13,4.467,13,7.5c0,3.032-2.468,5.5-5.5,5.5C4.467,13,2,10.532,2,7.5z"
   id="path3"
   style="fill:#ee3643;fill-opacity:1" />
</g>
</svg>